<svg viewBox="0 0 300 300">
  <g id="Layer_2" stroke="#000000" stroke-miterlimit="10">
    <path id="top" d="M271.67 80.5c-31.3-.02-233.68-.2-248.16 0-26.13.2-26.56-49.8 0-50 20.91 0 217.33-.2 248.16 0 30.84.2 31.31 50.02 0 50z"/>
    <path id="middle" d="M271.34 169.5c-31.31-.02-233.68-.2-248.16 0-26.13.2-26.57-49.8 0-50 20.9 0 217.32-.2 248.16 0 30.83.2 31.3 50.02 0 50z"/>
    <path id="bottom" d="M271.34 258.5c-31.31-.02-233.68-.2-248.16 0-26.13.2-26.57-49.8 0-50 20.9 0 217.32-.2 248.16 0 30.83.2 31.3 50.02 0 50z"/>
  </g>
</svg>
