<svg id="Layer_1" data-name="Layer 1" xmlns="http://www.w3.org/2000/svg" viewBox="0 0 1969 1131">
  <g opacity=".7" fill="#fff">
    <path d="M-25.5 1104.5v-1126h1964v1126zm97-1022.23l1740.77 940.3 12.13-23.42L83.59 58.85z" transform="translate(28 24)"/>
    <path d="M1936-19v1121H-23V-19h1959m-122.72 1045l2.34-4.52 9.83-19 2.26-4.36-4.32-2.34L87 57.86l-4.48-2.42L80.2 60l-9.83 19-2.26 4.3 4.32 2.33 1736.38 937.93 4.47 2.42M1941-24H-28v1131h1969V-24zm-129.82 1043.16L74.81 81.23l9.83-19L1821 1000.18l-9.83 19z" transform="translate(28 24)"/>
  </g>
</svg>
